<mxfile host="app.diagrams.net" modified="2023-10-11T10:54:26.146Z" agent="Mozilla/5.0 (Windows NT 10.0; Win64; x64) AppleWebKit/537.36 (KHTML, like Gecko) Chrome/117.0.0.0 Safari/537.36 OPR/103.0.0.0" version="22.0.4" etag="1QcWEz9W91eB5FJIldDe" type="github">
  <diagram name="PÃ¡gina-1" id="dBQjz3KXC0jbK6-ykJxL">
    <mxGraphModel>
      <root>
        <mxCell id="0" />
        <mxCell id="1" parent="0" />
      </root>
    </mxGraphModel>
  </diagram>
</mxfile>
